<mxfile host="app.diagrams.net" modified="2023-04-27T14:17:34.370Z" agent="Mozilla/5.0 (Windows NT 10.0; Win64; x64) AppleWebKit/537.36 (KHTML, like Gecko) Chrome/112.0.0.0 Safari/537.36" etag="YL17UZNSeYWQbWpvph2x" version="21.2.3" type="device">
  <diagram name="Page-1" id="e7e014a7-5840-1c2e-5031-d8a46d1fe8dd">
    <mxGraphModel dx="521" dy="571" grid="1" gridSize="10" guides="1" tooltips="1" connect="1" arrows="1" fold="1" page="1" pageScale="1" pageWidth="1169" pageHeight="826" background="none" math="0" shadow="0">
      <root>
        <mxCell id="0" />
        <mxCell id="1" parent="0" />
        <mxCell id="wbss8Z8iz7gP4pCP09aJ-50" value="" style="rounded=0;whiteSpace=wrap;html=1;" vertex="1" parent="1">
          <mxGeometry x="235" y="458" width="160" height="100" as="geometry" />
        </mxCell>
        <mxCell id="15" value="" style="" parent="1" vertex="1">
          <mxGeometry x="235" y="268" width="160" height="190" as="geometry" />
        </mxCell>
        <mxCell id="13" value="" style="ellipse;shape=startState;fillColor=#000000;strokeColor=#ff0000;" parent="1" vertex="1">
          <mxGeometry x="90" y="180" width="30" height="30" as="geometry" />
        </mxCell>
        <mxCell id="wbss8Z8iz7gP4pCP09aJ-43" value="User" style="text;strokeColor=none;align=center;fillColor=none;html=1;verticalAlign=middle;whiteSpace=wrap;rounded=0;" vertex="1" parent="1">
          <mxGeometry x="135" y="590" width="60" height="30" as="geometry" />
        </mxCell>
        <mxCell id="wbss8Z8iz7gP4pCP09aJ-44" value="station : string" style="text;html=1;align=center;verticalAlign=middle;resizable=0;points=[];autosize=1;strokeColor=none;fillColor=none;" vertex="1" parent="1">
          <mxGeometry x="260" y="278" width="100" height="30" as="geometry" />
        </mxCell>
        <mxCell id="wbss8Z8iz7gP4pCP09aJ-45" value="user : string" style="text;html=1;align=center;verticalAlign=middle;resizable=0;points=[];autosize=1;strokeColor=none;fillColor=none;" vertex="1" parent="1">
          <mxGeometry x="270" y="298" width="90" height="30" as="geometry" />
        </mxCell>
        <mxCell id="wbss8Z8iz7gP4pCP09aJ-46" value="serial : number" style="text;html=1;align=center;verticalAlign=middle;resizable=0;points=[];autosize=1;strokeColor=none;fillColor=none;" vertex="1" parent="1">
          <mxGeometry x="270" y="318" width="100" height="30" as="geometry" />
        </mxCell>
        <mxCell id="wbss8Z8iz7gP4pCP09aJ-47" value="nextSerial: number" style="text;html=1;align=center;verticalAlign=middle;resizable=0;points=[];autosize=1;strokeColor=none;fillColor=none;" vertex="1" parent="1">
          <mxGeometry x="255" y="348" width="120" height="30" as="geometry" />
        </mxCell>
        <mxCell id="wbss8Z8iz7gP4pCP09aJ-48" value="charge: number" style="text;html=1;align=center;verticalAlign=middle;resizable=0;points=[];autosize=1;strokeColor=none;fillColor=none;" vertex="1" parent="1">
          <mxGeometry x="260" y="368" width="110" height="30" as="geometry" />
        </mxCell>
        <mxCell id="wbss8Z8iz7gP4pCP09aJ-49" value="rent()" style="text;html=1;align=center;verticalAlign=middle;resizable=0;points=[];autosize=1;strokeColor=none;fillColor=none;" vertex="1" parent="1">
          <mxGeometry x="290" y="458" width="50" height="30" as="geometry" />
        </mxCell>
        <mxCell id="wbss8Z8iz7gP4pCP09aJ-55" value="dock()" style="text;html=1;align=center;verticalAlign=middle;resizable=0;points=[];autosize=1;strokeColor=none;fillColor=none;" vertex="1" parent="1">
          <mxGeometry x="285" y="498" width="60" height="30" as="geometry" />
        </mxCell>
        <mxCell id="wbss8Z8iz7gP4pCP09aJ-66" value="" style="rounded=0;whiteSpace=wrap;html=1;" vertex="1" parent="1">
          <mxGeometry x="95" y="810" width="160" height="100" as="geometry" />
        </mxCell>
        <mxCell id="wbss8Z8iz7gP4pCP09aJ-67" value="" style="" vertex="1" parent="1">
          <mxGeometry x="95" y="620" width="160" height="190" as="geometry" />
        </mxCell>
        <mxCell id="wbss8Z8iz7gP4pCP09aJ-68" value="username: string" style="text;html=1;align=center;verticalAlign=middle;resizable=0;points=[];autosize=1;strokeColor=none;fillColor=none;" vertex="1" parent="1">
          <mxGeometry x="115" y="650" width="110" height="30" as="geometry" />
        </mxCell>
        <mxCell id="wbss8Z8iz7gP4pCP09aJ-69" value="password : string" style="text;html=1;align=center;verticalAlign=middle;resizable=0;points=[];autosize=1;strokeColor=none;fillColor=none;" vertex="1" parent="1">
          <mxGeometry x="115" y="690" width="110" height="30" as="geometry" />
        </mxCell>
        <mxCell id="wbss8Z8iz7gP4pCP09aJ-70" value="age: number" style="text;html=1;align=center;verticalAlign=middle;resizable=0;points=[];autosize=1;strokeColor=none;fillColor=none;" vertex="1" parent="1">
          <mxGeometry x="120" y="730" width="90" height="30" as="geometry" />
        </mxCell>
        <mxCell id="wbss8Z8iz7gP4pCP09aJ-73" value="login(password)" style="text;html=1;align=center;verticalAlign=middle;resizable=0;points=[];autosize=1;strokeColor=none;fillColor=none;" vertex="1" parent="1">
          <mxGeometry x="119" y="810" width="110" height="30" as="geometry" />
        </mxCell>
        <mxCell id="wbss8Z8iz7gP4pCP09aJ-74" value="logout()" style="text;html=1;align=center;verticalAlign=middle;resizable=0;points=[];autosize=1;strokeColor=none;fillColor=none;" vertex="1" parent="1">
          <mxGeometry x="145" y="850" width="60" height="30" as="geometry" />
        </mxCell>
        <mxCell id="wbss8Z8iz7gP4pCP09aJ-86" value="isBroken: boolean" style="text;html=1;align=center;verticalAlign=middle;resizable=0;points=[];autosize=1;strokeColor=none;fillColor=none;" vertex="1" parent="1">
          <mxGeometry x="250" y="401" width="120" height="30" as="geometry" />
        </mxCell>
        <mxCell id="wbss8Z8iz7gP4pCP09aJ-87" value="loggedIn: boolean" style="text;html=1;align=center;verticalAlign=middle;resizable=0;points=[];autosize=1;strokeColor=none;fillColor=none;" vertex="1" parent="1">
          <mxGeometry x="110" y="770" width="120" height="30" as="geometry" />
        </mxCell>
        <mxCell id="wbss8Z8iz7gP4pCP09aJ-88" value="" style="rounded=0;whiteSpace=wrap;html=1;" vertex="1" parent="1">
          <mxGeometry x="350" y="810" width="160" height="180" as="geometry" />
        </mxCell>
        <mxCell id="wbss8Z8iz7gP4pCP09aJ-89" value="" style="" vertex="1" parent="1">
          <mxGeometry x="350" y="620" width="160" height="190" as="geometry" />
        </mxCell>
        <mxCell id="wbss8Z8iz7gP4pCP09aJ-90" value="station: {}" style="text;html=1;align=center;verticalAlign=middle;resizable=0;points=[];autosize=1;strokeColor=none;fillColor=none;" vertex="1" parent="1">
          <mxGeometry x="390" y="650" width="70" height="30" as="geometry" />
        </mxCell>
        <mxCell id="wbss8Z8iz7gP4pCP09aJ-91" value="registeredUsers: {}" style="text;html=1;align=center;verticalAlign=middle;resizable=0;points=[];autosize=1;strokeColor=none;fillColor=none;" vertex="1" parent="1">
          <mxGeometry x="370" y="740" width="120" height="30" as="geometry" />
        </mxCell>
        <mxCell id="wbss8Z8iz7gP4pCP09aJ-94" value="loginUser()" style="text;html=1;align=center;verticalAlign=middle;resizable=0;points=[];autosize=1;strokeColor=none;fillColor=none;" vertex="1" parent="1">
          <mxGeometry x="390" y="826" width="80" height="30" as="geometry" />
        </mxCell>
        <mxCell id="wbss8Z8iz7gP4pCP09aJ-96" value="ScooterApp" style="text;strokeColor=none;align=center;fillColor=none;html=1;verticalAlign=middle;whiteSpace=wrap;rounded=0;" vertex="1" parent="1">
          <mxGeometry x="395" y="590" width="60" height="30" as="geometry" />
        </mxCell>
        <mxCell id="wbss8Z8iz7gP4pCP09aJ-97" value="registeredUsers (u,p,a)" style="text;html=1;align=center;verticalAlign=middle;resizable=0;points=[];autosize=1;strokeColor=none;fillColor=none;" vertex="1" parent="1">
          <mxGeometry x="355" y="810" width="150" height="30" as="geometry" />
        </mxCell>
        <mxCell id="wbss8Z8iz7gP4pCP09aJ-99" value="logoutUser()" style="text;html=1;align=center;verticalAlign=middle;resizable=0;points=[];autosize=1;strokeColor=none;fillColor=none;" vertex="1" parent="1">
          <mxGeometry x="390" y="850" width="90" height="30" as="geometry" />
        </mxCell>
        <mxCell id="wbss8Z8iz7gP4pCP09aJ-100" value="logoutUser()" style="text;html=1;align=center;verticalAlign=middle;resizable=0;points=[];autosize=1;strokeColor=none;fillColor=none;" vertex="1" parent="1">
          <mxGeometry x="390" y="850" width="90" height="30" as="geometry" />
        </mxCell>
        <mxCell id="wbss8Z8iz7gP4pCP09aJ-101" value="createScooter()" style="text;html=1;align=center;verticalAlign=middle;resizable=0;points=[];autosize=1;strokeColor=none;fillColor=none;" vertex="1" parent="1">
          <mxGeometry x="380" y="875" width="110" height="30" as="geometry" />
        </mxCell>
        <mxCell id="wbss8Z8iz7gP4pCP09aJ-102" value="dockScooter()" style="text;html=1;align=center;verticalAlign=middle;resizable=0;points=[];autosize=1;strokeColor=none;fillColor=none;" vertex="1" parent="1">
          <mxGeometry x="385" y="900" width="100" height="30" as="geometry" />
        </mxCell>
        <mxCell id="wbss8Z8iz7gP4pCP09aJ-103" value="rentScooter()" style="text;html=1;align=center;verticalAlign=middle;resizable=0;points=[];autosize=1;strokeColor=none;fillColor=none;" vertex="1" parent="1">
          <mxGeometry x="390" y="930" width="90" height="30" as="geometry" />
        </mxCell>
        <mxCell id="wbss8Z8iz7gP4pCP09aJ-105" value="print()" style="text;html=1;align=center;verticalAlign=middle;resizable=0;points=[];autosize=1;strokeColor=none;fillColor=none;" vertex="1" parent="1">
          <mxGeometry x="405" y="950" width="50" height="30" as="geometry" />
        </mxCell>
      </root>
    </mxGraphModel>
  </diagram>
</mxfile>
